<?xml version="1.0" standalone="no"?>
<svg xmlns="http://www.w3.org/2000/svg" xmlns:xlink="http://www.w3.org/1999/xlink" width="634pt" height="467pt" viewBox="0.00 0.00 634.25 467.2">
<g id="graph0" class="graph" transform="translate(38.41062149642096,333.02923971441396) scale(0.8705505632961241)" data-name="Tree">

<polygon fill="white" stroke="none" points="-4,4 -4,-463.2 630.25,-463.2 630.25,4 -4,4"/>
<!-- 0 -->
<g id="node1" class="node" pointer-events="visible" data-name="0">

<path fill="#e5fad7" stroke="black" d="M452.38,-459.2C452.38,-459.2 332.87,-459.2 332.87,-459.2 326.87,-459.2 320.87,-453.2 320.87,-447.2 320.87,-447.2 320.87,-379.2 320.87,-379.2 320.87,-373.2 326.87,-367.2 332.87,-367.2 332.87,-367.2 452.38,-367.2 452.38,-367.2 458.38,-367.2 464.38,-373.2 464.38,-379.2 464.38,-379.2 464.38,-447.2 464.38,-447.2 464.38,-453.2 458.38,-459.2 452.38,-459.2"/>
<text text-anchor="middle" x="392.63" y="-442.6" font-family="Helvetica,sans-Serif" font-size="14.00">age &lt;= 30.5</text>
<text text-anchor="middle" x="392.63" y="-425.8" font-family="Helvetica,sans-Serif" font-size="14.00">gini = 0.778</text>
<text text-anchor="middle" x="392.63" y="-409" font-family="Helvetica,sans-Serif" font-size="14.00">samples = 18</text>
<text text-anchor="middle" x="392.63" y="-392.2" font-family="Helvetica,sans-Serif" font-size="14.00">value = [3, 6, 3, 3, 3]</text>
<text text-anchor="middle" x="392.63" y="-375.4" font-family="Helvetica,sans-Serif" font-size="14.00">class = Classical</text>
</g>
<!-- 1 -->
<g id="node2" class="node" pointer-events="visible" data-name="1">

<path fill="#ffffff" stroke="black" d="M372.38,-331.2C372.38,-331.2 252.87,-331.2 252.87,-331.2 246.87,-331.2 240.87,-325.2 240.87,-319.2 240.87,-319.2 240.87,-251.2 240.87,-251.2 240.87,-245.2 246.87,-239.2 252.87,-239.2 252.87,-239.2 372.38,-239.2 372.38,-239.2 378.38,-239.2 384.38,-245.2 384.38,-251.2 384.38,-251.2 384.38,-319.2 384.38,-319.2 384.38,-325.2 378.38,-331.2 372.38,-331.2"/>
<text text-anchor="middle" x="312.63" y="-314.6" font-family="Helvetica,sans-Serif" font-size="14.00">gender &lt;= 0.5</text>
<text text-anchor="middle" x="312.63" y="-297.8" font-family="Helvetica,sans-Serif" font-size="14.00">gini = 0.75</text>
<text text-anchor="middle" x="312.63" y="-281" font-family="Helvetica,sans-Serif" font-size="14.00">samples = 12</text>
<text text-anchor="middle" x="312.63" y="-264.2" font-family="Helvetica,sans-Serif" font-size="14.00">value = [3, 0, 3, 3, 3]</text>
<text text-anchor="middle" x="312.63" y="-247.4" font-family="Helvetica,sans-Serif" font-size="14.00">class = Acoustic</text>
</g>
<!-- 0&#45;&gt;1 -->
<g id="edge1" class="edge" data-name="0-&gt;1">

<path fill="none" stroke="black" d="M363.74,-366.71C358.48,-358.41 352.93,-349.68 347.51,-341.14"/>
<polygon fill="black" stroke="black" points="350.59,-339.47 342.28,-332.9 344.68,-343.22 350.59,-339.47"/>
<text text-anchor="middle" x="336.02" y="-351.82" font-family="Helvetica,sans-Serif" font-size="14.00">True</text>
</g>
<!-- 8 -->
<g id="node9" class="node" pointer-events="visible" data-name="8">

<path fill="#7be539" stroke="black" d="M533.38,-322.9C533.38,-322.9 413.87,-322.9 413.87,-322.9 407.87,-322.9 401.87,-316.9 401.87,-310.9 401.87,-310.9 401.87,-259.5 401.87,-259.5 401.87,-253.5 407.87,-247.5 413.87,-247.5 413.87,-247.5 533.38,-247.5 533.38,-247.5 539.38,-247.5 545.38,-253.5 545.38,-259.5 545.38,-259.5 545.38,-310.9 545.38,-310.9 545.38,-316.9 539.38,-322.9 533.38,-322.9"/>
<text text-anchor="middle" x="473.63" y="-306.2" font-family="Helvetica,sans-Serif" font-size="14.00">gini = 0.0</text>
<text text-anchor="middle" x="473.63" y="-289.4" font-family="Helvetica,sans-Serif" font-size="14.00">samples = 6</text>
<text text-anchor="middle" x="473.63" y="-272.6" font-family="Helvetica,sans-Serif" font-size="14.00">value = [0, 6, 0, 0, 0]</text>
<text text-anchor="middle" x="473.63" y="-255.8" font-family="Helvetica,sans-Serif" font-size="14.00">class = Classical</text>
</g>
<!-- 0&#45;&gt;8 -->
<g id="edge8" class="edge" data-name="0-&gt;8">

<path fill="none" stroke="black" d="M421.87,-366.71C428.95,-355.7 436.53,-343.91 443.64,-332.84"/>
<polygon fill="black" stroke="black" points="446.47,-334.92 448.93,-324.62 440.58,-331.14 446.47,-334.92"/>
<text text-anchor="middle" x="455.06" y="-343.57" font-family="Helvetica,sans-Serif" font-size="14.00">False</text>
</g>
<!-- 2 -->
<g id="node3" class="node" pointer-events="visible" data-name="2">

<path fill="#ffffff" stroke="black" d="M292.38,-203.2C292.38,-203.2 172.87,-203.2 172.87,-203.2 166.87,-203.2 160.87,-197.2 160.87,-191.2 160.87,-191.2 160.87,-123.2 160.87,-123.2 160.87,-117.2 166.87,-111.2 172.87,-111.2 172.87,-111.2 292.38,-111.2 292.38,-111.2 298.38,-111.2 304.38,-117.2 304.38,-123.2 304.38,-123.2 304.38,-191.2 304.38,-191.2 304.38,-197.2 298.38,-203.2 292.38,-203.2"/>
<text text-anchor="middle" x="232.63" y="-186.6" font-family="Helvetica,sans-Serif" font-size="14.00">age &lt;= 25.5</text>
<text text-anchor="middle" x="232.63" y="-169.8" font-family="Helvetica,sans-Serif" font-size="14.00">gini = 0.5</text>
<text text-anchor="middle" x="232.63" y="-153" font-family="Helvetica,sans-Serif" font-size="14.00">samples = 6</text>
<text text-anchor="middle" x="232.63" y="-136.2" font-family="Helvetica,sans-Serif" font-size="14.00">value = [3, 0, 3, 0, 0]</text>
<text text-anchor="middle" x="232.63" y="-119.4" font-family="Helvetica,sans-Serif" font-size="14.00">class = Acoustic</text>
</g>
<!-- 1&#45;&gt;2 -->
<g id="edge2" class="edge" data-name="1-&gt;2">

<path fill="none" stroke="black" d="M283.74,-238.71C278.48,-230.41 272.93,-221.68 267.51,-213.14"/>
<polygon fill="black" stroke="black" points="270.59,-211.47 262.28,-204.9 264.68,-215.22 270.59,-211.47"/>
</g>
<!-- 5 -->
<g id="node6" class="node" pointer-events="visible" data-name="5">

<path fill="#ffffff" stroke="black" d="M453.38,-203.2C453.38,-203.2 333.87,-203.2 333.87,-203.2 327.87,-203.2 321.87,-197.2 321.87,-191.2 321.87,-191.2 321.87,-123.2 321.87,-123.2 321.87,-117.2 327.87,-111.2 333.87,-111.2 333.87,-111.2 453.38,-111.2 453.38,-111.2 459.38,-111.2 465.38,-117.2 465.38,-123.2 465.38,-123.2 465.38,-191.2 465.38,-191.2 465.38,-197.2 459.38,-203.2 453.38,-203.2"/>
<text text-anchor="middle" x="393.63" y="-186.6" font-family="Helvetica,sans-Serif" font-size="14.00">age &lt;= 25.5</text>
<text text-anchor="middle" x="393.63" y="-169.8" font-family="Helvetica,sans-Serif" font-size="14.00">gini = 0.5</text>
<text text-anchor="middle" x="393.63" y="-153" font-family="Helvetica,sans-Serif" font-size="14.00">samples = 6</text>
<text text-anchor="middle" x="393.63" y="-136.2" font-family="Helvetica,sans-Serif" font-size="14.00">value = [0, 0, 0, 3, 3]</text>
<text text-anchor="middle" x="393.63" y="-119.4" font-family="Helvetica,sans-Serif" font-size="14.00">class = HipHop</text>
</g>
<!-- 1&#45;&gt;5 -->
<g id="edge5" class="edge" data-name="1-&gt;5">

<path fill="none" stroke="black" d="M341.87,-238.71C347.2,-230.41 352.82,-221.68 358.31,-213.14"/>
<polygon fill="black" stroke="black" points="361.14,-215.2 363.61,-204.9 355.26,-211.41 361.14,-215.2"/>
</g>
<!-- 3 -->
<g id="node4" class="node" pointer-events="visible" data-name="3">

<path fill="#39e5c5" stroke="black" d="M131.38,-75.3C131.38,-75.3 11.87,-75.3 11.87,-75.3 5.87,-75.3 -0.13,-69.3 -0.13,-63.3 -0.13,-63.3 -0.13,-11.9 -0.13,-11.9 -0.13,-5.9 5.87,0.1 11.87,0.1 11.87,0.1 131.38,0.1 131.38,0.1 137.38,0.1 143.38,-5.9 143.38,-11.9 143.38,-11.9 143.38,-63.3 143.38,-63.3 143.38,-69.3 137.38,-75.3 131.38,-75.3"/>
<text text-anchor="middle" x="71.63" y="-58.6" font-family="Helvetica,sans-Serif" font-size="14.00">gini = 0.0</text>
<text text-anchor="middle" x="71.63" y="-41.8" font-family="Helvetica,sans-Serif" font-size="14.00">samples = 3</text>
<text text-anchor="middle" x="71.63" y="-25" font-family="Helvetica,sans-Serif" font-size="14.00">value = [0, 0, 3, 0, 0]</text>
<text text-anchor="middle" x="71.63" y="-8.2" font-family="Helvetica,sans-Serif" font-size="14.00">class = Dance</text>
</g>
<!-- 2&#45;&gt;3 -->
<g id="edge3" class="edge" data-name="2-&gt;3">

<path fill="none" stroke="black" d="M170.38,-110.73C157.63,-101.42 144.24,-91.64 131.58,-82.39"/>
<polygon fill="black" stroke="black" points="133.87,-79.73 123.73,-76.66 129.74,-85.38 133.87,-79.73"/>
</g>
<!-- 4 -->
<g id="node5" class="node" pointer-events="visible" data-name="4">

<path fill="#e58139" stroke="black" d="M292.38,-75.3C292.38,-75.3 172.87,-75.3 172.87,-75.3 166.87,-75.3 160.87,-69.3 160.87,-63.3 160.87,-63.3 160.87,-11.9 160.87,-11.9 160.87,-5.9 166.87,0.1 172.87,0.1 172.87,0.1 292.38,0.1 292.38,0.1 298.38,0.1 304.38,-5.9 304.38,-11.9 304.38,-11.9 304.38,-63.3 304.38,-63.3 304.38,-69.3 298.38,-75.3 292.38,-75.3"/>
<text text-anchor="middle" x="232.63" y="-58.6" font-family="Helvetica,sans-Serif" font-size="14.00">gini = 0.0</text>
<text text-anchor="middle" x="232.63" y="-41.8" font-family="Helvetica,sans-Serif" font-size="14.00">samples = 3</text>
<text text-anchor="middle" x="232.63" y="-25" font-family="Helvetica,sans-Serif" font-size="14.00">value = [3, 0, 0, 0, 0]</text>
<text text-anchor="middle" x="232.63" y="-8.2" font-family="Helvetica,sans-Serif" font-size="14.00">class = Acoustic</text>
</g>
<!-- 2&#45;&gt;4 -->
<g id="edge4" class="edge" data-name="2-&gt;4">

<path fill="none" stroke="black" d="M232.63,-110.73C232.63,-102.92 232.63,-94.77 232.63,-86.88"/>
<polygon fill="black" stroke="black" points="236.13,-87.09 232.63,-77.09 229.13,-87.09 236.13,-87.09"/>
</g>
<!-- 6 -->
<g id="node7" class="node" pointer-events="visible" data-name="6">

<path fill="#3c39e5" stroke="black" d="M453.38,-75.3C453.38,-75.3 333.87,-75.3 333.87,-75.3 327.87,-75.3 321.87,-69.3 321.87,-63.3 321.87,-63.3 321.87,-11.9 321.87,-11.9 321.87,-5.9 327.87,0.1 333.87,0.1 333.87,0.1 453.38,0.1 453.38,0.1 459.38,0.1 465.38,-5.9 465.38,-11.9 465.38,-11.9 465.38,-63.3 465.38,-63.3 465.38,-69.3 459.38,-75.3 453.38,-75.3"/>
<text text-anchor="middle" x="393.63" y="-58.6" font-family="Helvetica,sans-Serif" font-size="14.00">gini = 0.0</text>
<text text-anchor="middle" x="393.63" y="-41.8" font-family="Helvetica,sans-Serif" font-size="14.00">samples = 3</text>
<text text-anchor="middle" x="393.63" y="-25" font-family="Helvetica,sans-Serif" font-size="14.00">value = [0, 0, 0, 3, 0]</text>
<text text-anchor="middle" x="393.63" y="-8.2" font-family="Helvetica,sans-Serif" font-size="14.00">class = HipHop</text>
</g>
<!-- 5&#45;&gt;6 -->
<g id="edge6" class="edge" data-name="5-&gt;6">

<path fill="none" stroke="black" d="M393.63,-110.73C393.63,-102.92 393.63,-94.77 393.63,-86.88"/>
<polygon fill="black" stroke="black" points="397.13,-87.09 393.63,-77.09 390.13,-87.09 397.13,-87.09"/>
</g>
<!-- 7 -->
<g id="node8" class="node" pointer-events="visible" data-name="7">

<path fill="#e539c0" stroke="black" d="M614.38,-75.3C614.38,-75.3 494.87,-75.3 494.87,-75.3 488.87,-75.3 482.87,-69.3 482.87,-63.3 482.87,-63.3 482.87,-11.9 482.87,-11.9 482.87,-5.9 488.87,0.1 494.87,0.1 494.87,0.1 614.38,0.1 614.38,0.1 620.38,0.1 626.38,-5.9 626.38,-11.9 626.38,-11.9 626.38,-63.3 626.38,-63.3 626.38,-69.3 620.38,-75.3 614.38,-75.3"/>
<text text-anchor="middle" x="554.63" y="-58.6" font-family="Helvetica,sans-Serif" font-size="14.00">gini = 0.0</text>
<text text-anchor="middle" x="554.63" y="-41.8" font-family="Helvetica,sans-Serif" font-size="14.00">samples = 3</text>
<text text-anchor="middle" x="554.63" y="-25" font-family="Helvetica,sans-Serif" font-size="14.00">value = [0, 0, 0, 0, 3]</text>
<text text-anchor="middle" x="554.63" y="-8.2" font-family="Helvetica,sans-Serif" font-size="14.00">class = Jazz</text>
</g>
<!-- 5&#45;&gt;7 -->
<g id="edge7" class="edge" data-name="5-&gt;7">

<path fill="none" stroke="black" d="M455.87,-110.73C468.62,-101.42 482.01,-91.64 494.67,-82.39"/>
<polygon fill="black" stroke="black" points="496.51,-85.38 502.52,-76.66 492.38,-79.73 496.51,-85.38"/>
</g>
</g>
</svg>